<?xml version="1.0" standalone="no"?><svg xmlns:xlink="http://www.w3.org/1999/xlink" xmlns="http://www.w3.org/2000/svg" viewBox="0 0 1440 392.72227353463586" preserveAspectRatio="xMaxYMax slice"><g transform="scale(1.2788632326820604)"><rect x="0" y="0" width="1126" height="307.09090909090907" fill="#ffffff"/><rect x="0" y="0" width="102.36" height="102.36" fill="#fbd9cb"/><rect x="0" y="0" width="102.36" height="102.36" fill="#ffffff"/><rect x="102.36363636363636" y="0" width="102.36363636363636" height="102.36363636363636" fill="#ffffff"/><rect x="102.36" y="0" width="51.18" height="51.18" fill="#fffbf9"/><path d="M 102.36 51.18 A 51.18 51.18 0 0 0 153.54 0 L 102.36 0" fill="#f9c4ad"/><rect x="153.55" y="0" width="51.18" height="51.18" fill="#f27c4a"/><path d="M 153.55 0 A 51.18 51.18 0 0 0 204.73000000000002 51.18 L 204.73000000000002 0" fill="#fbd2c1"/><rect x="102.36" y="51.18" width="51.18" height="51.18" fill="#ffffff"/><path d="M 102.36 51.18 A 51.18 51.18 0 0 1 153.54 102.36 L 102.36 102.36" fill="#fac9b4"/><rect x="153.55" y="51.18" width="51.18" height="51.18" fill="#f0662c"/><path d="M 153.55 102.36 A 51.18 51.18 0 0 1  204.73000000000002 51.18 L 204.73000000000002 102.36" fill="#f6a380"/><rect x="204.73" y="0" width="102.36" height="102.36" fill="#f59d77"/><rect x="204.73" y="0" width="102.36" height="102.36" fill="#ffffff"/><rect x="307.09090909090907" y="0" width="102.36363636363636" height="102.36363636363636" fill="#ffffff"/><rect x="307.09" y="0" width="51.18" height="51.18" fill="#ffffff"/><polygon points="358.27,0 358.27,51.18 307.09,51.18" fill="#ffffff"/><rect x="358.27" y="0" width="51.18" height="51.18" fill="#fffbf9"/><polygon points="358.27,0 409.45,0 358.27,51.18" fill="#fef6f2"/><rect x="307.09" y="51.18" width="51.18" height="51.18" fill="#ffffff"/><polygon points="307.09,51.18 358.27,51.18 358.27,102.36" fill="#ffffff"/><rect x="358.27" y="51.18" width="51.18" height="51.18" fill="#fde7dd"/><polygon points="358.27,51.18 409.45,102.36 358.27,102.36" fill="#f48d62"/><rect x="409.45454545454544" y="0" width="102.36363636363636" height="102.36363636363636" fill="#ffffff"/><rect x="409.45" y="0" width="51.18" height="51.18" fill="#f1713a"/><path d="M 409.45 51.18 A 51.18 51.18 0 0 0 460.63 0 L 409.45 0" fill="#ffffff"/><rect x="460.64" y="0" width="51.18" height="51.18" fill="#ffffff"/><path d="M 460.64 0 A 51.18 51.18 0 0 0 511.82 51.18 L 511.82 0" fill="#ef6124"/><rect x="409.45" y="51.18" width="51.18" height="51.18" fill="#ffffff"/><path d="M 409.45 51.18 A 51.18 51.18 0 0 1 460.63 102.36 L 409.45 102.36" fill="#ffffff"/><rect x="460.64" y="51.18" width="51.18" height="51.18" fill="#ffffff"/><path d="M 460.64 102.36 A 51.18 51.18 0 0 1  511.82 51.18 L 511.82 102.36" fill="#f59870"/><rect x="511.82" y="0" width="102.36" height="102.36" fill="#ffffff"/><polygon points="511.82,0 614.18,102.36 511.82,102.36" fill="#ffffff"/><rect x="614.1818181818181" y="0" width="102.36363636363636" height="102.36363636363636" fill="#ffffff"/><rect x="614.18" y="0" width="51.18" height="51.18" fill="#ffffff"/><path d="M 614.18 0 A 51.18 51.18 0 0 1 665.3599999999999 51.18 L 614.18 51.18" fill="#facab6"/><rect x="665.36" y="0" width="51.18" height="51.18" fill="#fdeee7"/><path d="M 665.36 51.18 A 51.18 51.18 0 0 1  716.54 0 L 716.54 51.18" fill="#ffffff"/><rect x="614.18" y="51.18" width="51.18" height="51.18" fill="#f06328"/><path d="M 614.18 102.36 A 51.18 51.18 0 0 0 665.3599999999999 51.18 L 614.18 51.18" fill="#ffffff"/><rect x="665.36" y="51.18" width="51.18" height="51.18" fill="#f59c76"/><path d="M 665.36 51.18 A 51.18 51.18 0 0 0 716.54 102.36 L 716.54 51.18" fill="#f6a07c"/><rect x="716.55" y="0" width="102.36" height="102.36" fill="#f59b75"/><rect x="716.55" y="0" width="102.36" height="102.36" fill="#fac7b2"/><rect x="818.9090909090909" y="0" width="102.36363636363636" height="102.36363636363636" fill="#ffffff"/><rect x="818.91" y="0" width="51.18" height="51.18" fill="#ffffff"/><path d="M 818.91 0 A 51.18 51.18 0 0 0 870.0899999999999 51.18 L 870.0899999999999 0" fill="#ffffff"/><rect x="870.09" y="0" width="51.18" height="51.18" fill="#ffffff"/><path d="M 870.09 51.18 A 51.18 51.18 0 0 0 921.27 0 L 870.09 0" fill="#ffffff"/><rect x="818.91" y="51.18" width="51.18" height="51.18" fill="#ffffff"/><path d="M 818.91 102.36 A 51.18 51.18 0 0 1  870.0899999999999 51.18 L 870.0899999999999 102.36" fill="#fac9b5"/><rect x="870.09" y="51.18" width="51.18" height="51.18" fill="#ffffff"/><path d="M 870.09 51.18 A 51.18 51.18 0 0 1 921.27 102.36 L 870.09 102.36" fill="#ffffff"/><rect x="921.2727272727273" y="0" width="102.36363636363636" height="102.36363636363636" fill="#ffffff"/><rect x="921.27" y="0" width="51.18" height="51.18" fill="#ef5f22"/><path d="M 921.27 0 A 51.18 51.18 0 0 1 972.4499999999999 51.18 L 921.27 51.18" fill="#ffffff"/><rect x="972.45" y="0" width="51.18" height="51.18" fill="#ffffff"/><path d="M 972.45 51.18 A 51.18 51.18 0 0 1  1023.63 0 L 1023.63 51.18" fill="#ffffff"/><rect x="921.27" y="51.18" width="51.18" height="51.18" fill="#ef5e21"/><path d="M 921.27 102.36 A 51.18 51.18 0 0 0 972.4499999999999 51.18 L 921.27 51.18" fill="#ffffff"/><rect x="972.45" y="51.18" width="51.18" height="51.18" fill="#ffffff"/><path d="M 972.45 51.18 A 51.18 51.18 0 0 0 1023.63 102.36 L 1023.63 51.18" fill="#ffffff"/><rect x="1023.64" y="0" width="102.36" height="102.36" fill="#fef9f6"/><rect x="1023.64" y="0" width="102.36" height="102.36" fill="#ffffff"/><rect x="0" y="102.36" width="102.36" height="102.36" fill="#f8b69b"/><rect x="0" y="102.36" width="102.36" height="102.36" fill="#ffffff"/><rect x="102.36" y="102.36" width="102.36" height="102.36" fill="#f59e79"/><polygon points="102.36,102.36 204.72,102.36 204.72,204.72" fill="#ffffff"/><rect x="204.72727272727272" y="102.36363636363636" width="102.36363636363636" height="102.36363636363636" fill="#ffffff"/><rect x="204.73" y="102.36" width="51.18" height="51.18" fill="#ffffff"/><path d="M 204.73 153.54 A 51.18 51.18 0 0 1 255.91 102.36 L 255.91 115.155 A 38.385 38.385 0 0 0 217.52499999999998 153.54" fill="#ffffff"/><rect x="255.91" y="102.36" width="51.18" height="51.18" fill="#ffffff"/><path d="M 255.91 102.36 A 51.18 51.18 0 0 1 307.09 153.54 L 294.295 153.54 A 38.385 38.385 0 0 0 255.91 115.155" fill="#ffffff"/><rect x="204.73" y="153.55" width="51.18" height="51.18" fill="#ffffff"/><path d="M 204.73 153.55 A 51.18 51.18 0 0 0 255.91 204.73000000000002 L 255.91 191.935 A 38.385 38.385 0 0 1 217.52499999999998 153.55" fill="#ffffff"/><rect x="255.91" y="153.55" width="51.18" height="51.18" fill="#f3885b"/><path d="M 255.91 204.73000000000002 A 51.18 51.18 0 0 0 307.09 153.55 L 294.295 153.55 A 38.385 38.385 0 0 1 255.91 191.935" fill="#ffffff"/><rect x="307.09090909090907" y="102.36363636363636" width="102.36363636363636" height="102.36363636363636" fill="#ffffff"/><rect x="307.09" y="102.36" width="51.18" height="51.18" fill="#f06b32"/><polygon points="358.27,102.36 358.27,153.54 307.09,153.54" fill="#fce0d5"/><rect x="358.27" y="102.36" width="51.18" height="51.18" fill="#f59d77"/><polygon points="358.27,102.36 409.45,153.54 358.27,153.54" fill="#fef0ea"/><rect x="307.09" y="153.55" width="51.18" height="51.18" fill="#ffffff"/><polygon points="307.09,153.55 358.27,153.55 307.09,204.73000000000002" fill="#f7af90"/><rect x="358.27" y="153.55" width="51.18" height="51.18" fill="#fffdfc"/><polygon points="358.27,153.55 409.45,153.55 409.45,204.73000000000002" fill="#f6a27e"/><rect x="409.45454545454544" y="102.36363636363636" width="102.36363636363636" height="102.36363636363636" fill="#ffffff"/><rect x="409.45" y="102.36" width="51.18" height="51.18" fill="#ffffff"/><path d="M 409.45 102.36 A 51.18 51.18 0 0 0 460.63 153.54 L 460.63 102.36" fill="#ef6125"/><rect x="460.64" y="102.36" width="51.18" height="51.18" fill="#ffffff"/><path d="M 460.64 153.54 A 51.18 51.18 0 0 0 511.82 102.36 L 460.64 102.36" fill="#ffffff"/><rect x="409.45" y="153.55" width="51.18" height="51.18" fill="#ffffff"/><path d="M 409.45 204.73000000000002 A 51.18 51.18 0 0 1  460.63 153.55 L 460.63 204.73000000000002" fill="#ffffff"/><rect x="460.64" y="153.55" width="51.18" height="51.18" fill="#f16f39"/><path d="M 460.64 153.55 A 51.18 51.18 0 0 1 511.82 204.73000000000002 L 460.64 204.73000000000002" fill="#f06429"/><rect x="511.82" y="102.36" width="102.36" height="102.36" fill="#f17541"/><path d="M 511.82 204.72 A 102.36 102.36 0 0 1  614.18 102.36 L 511.82 204.72 A 102.36 102.36 0 0 0 614.18 102.36" fill="#f49066"/><rect x="614.18" y="102.36" width="102.36" height="102.36" fill="#ffffff"/><path d="M 614.18 102.36 A 102.36 102.36 0 0 0 716.54 204.72 L 716.54 102.36" fill="#f0652b"/><rect x="716.5454545454545" y="102.36363636363636" width="102.36363636363636" height="102.36363636363636" fill="#ffffff"/><rect x="716.55" y="102.36" width="51.18" height="51.18" fill="#ffffff"/><polygon points="767.7299999999999,102.36 767.7299999999999,153.54 716.55,153.54" fill="#fbdacc"/><rect x="767.73" y="102.36" width="51.18" height="51.18" fill="#f0662c"/><polygon points="767.73,102.36 818.91,153.54 767.73,153.54" fill="#f1703a"/><rect x="716.55" y="153.55" width="51.18" height="51.18" fill="#ffffff"/><polygon points="716.55,153.55 767.7299999999999,153.55 767.7299999999999,204.73000000000002" fill="#f48e63"/><rect x="767.73" y="153.55" width="51.18" height="51.18" fill="#ffffff"/><polygon points="767.73,153.55 818.91,153.55 767.73,204.73000000000002" fill="#ffffff"/><rect x="818.9090909090909" y="102.36363636363636" width="102.36363636363636" height="102.36363636363636" fill="#ffffff"/><rect x="818.91" y="102.36" width="51.18" height="51.18" fill="#f9c2ab"/><polygon points="870.0899999999999,102.36 870.0899999999999,153.54 818.91,153.54" fill="#ffffff"/><rect x="870.09" y="102.36" width="51.18" height="51.18" fill="#fac9b5"/><polygon points="870.09,102.36 921.27,153.54 870.09,153.54" fill="#f27946"/><rect x="818.91" y="153.55" width="51.18" height="51.18" fill="#f17541"/><polygon points="818.91,153.55 870.0899999999999,153.55 870.0899999999999,204.73000000000002" fill="#ffffff"/><rect x="870.09" y="153.55" width="51.18" height="51.18" fill="#f8ba9f"/><polygon points="870.09,153.55 921.27,153.55 870.09,204.73000000000002" fill="#f9bea6"/><rect x="921.2727272727273" y="102.36363636363636" width="102.36363636363636" height="102.36363636363636" fill="#ffffff"/><rect x="921.27" y="102.36" width="51.18" height="51.18" fill="#ffffff"/><path d="M 921.27 153.54 A 51.18 51.18 0 0 0 972.4499999999999 102.36 L 921.27 102.36" fill="#ffffff"/><rect x="972.45" y="102.36" width="51.18" height="51.18" fill="#f27946"/><path d="M 972.45 102.36 A 51.18 51.18 0 0 0 1023.63 153.54 L 1023.63 102.36" fill="#ffffff"/><rect x="921.27" y="153.55" width="51.18" height="51.18" fill="#f16c34"/><path d="M 921.27 153.55 A 51.18 51.18 0 0 1 972.4499999999999 204.73000000000002 L 921.27 204.73000000000002" fill="#f06b32"/><rect x="972.45" y="153.55" width="51.18" height="51.18" fill="#ffffff"/><path d="M 972.45 204.73000000000002 A 51.18 51.18 0 0 1  1023.63 153.55 L 1023.63 204.73000000000002" fill="#ffffff"/><rect x="1023.6363636363636" y="102.36363636363636" width="102.36363636363636" height="102.36363636363636" fill="#ffffff"/><rect x="1023.64" y="102.36" width="51.18" height="51.18" fill="#ffffff"/><path d="M 1023.64 153.54 A 51.18 51.18 0 0 1  1074.82 102.36 L 1074.82 153.54" fill="#ffffff"/><rect x="1074.82" y="102.36" width="51.18" height="51.18" fill="#f0682f"/><path d="M 1074.82 102.36 A 51.18 51.18 0 0 1 1126 153.54 L 1074.82 153.54" fill="#f17540"/><rect x="1023.64" y="153.55" width="51.18" height="51.18" fill="#ffffff"/><path d="M 1023.64 153.55 A 51.18 51.18 0 0 0 1074.82 204.73000000000002 L 1074.82 153.55" fill="#ffffff"/><rect x="1074.82" y="153.55" width="51.18" height="51.18" fill="#ffffff"/><path d="M 1074.82 204.73000000000002 A 51.18 51.18 0 0 0 1126 153.55 L 1074.82 153.55" fill="#f49167"/><rect x="0" y="204.73" width="102.36" height="102.36" fill="#ffffff"/><path d="M 0 204.73 A 102.36 102.36 0 0 1  102.36 307.09 L 0 204.73 A 102.36 102.36 0 0 0 102.36 307.09" fill="#f0662c"/><rect x="102.36363636363636" y="204.72727272727272" width="102.36363636363636" height="102.36363636363636" fill="#ffffff"/><rect x="102.36" y="204.73" width="51.18" height="51.18" fill="#fbd6c7"/><polygon points="153.54,204.73 153.54,255.91 102.36,255.91" fill="#f27b48"/><rect x="153.55" y="204.73" width="51.18" height="51.18" fill="#f6a17d"/><polygon points="153.55,204.73 204.73000000000002,255.91 153.55,255.91" fill="#ef6023"/><rect x="102.36" y="255.91" width="51.18" height="51.18" fill="#ffffff"/><polygon points="102.36,255.91 153.54,255.91 153.54,307.09" fill="#ffffff"/><rect x="153.55" y="255.91" width="51.18" height="51.18" fill="#f6a785"/><polygon points="153.55,255.91 204.73000000000002,255.91 153.55,307.09" fill="#ffffff"/><rect x="204.72727272727272" y="204.72727272727272" width="102.36363636363636" height="102.36363636363636" fill="#ffffff"/><rect x="204.73" y="204.73" width="51.18" height="51.18" fill="#f59770"/><polygon points="255.91,204.73 255.91,255.91 204.73,255.91" fill="#f38252"/><rect x="255.91" y="204.73" width="51.18" height="51.18" fill="#f4946b"/><polygon points="255.91,204.73 307.09,255.91 255.91,255.91" fill="#ffffff"/><rect x="204.73" y="255.91" width="51.18" height="51.18" fill="#ffffff"/><polygon points="204.73,255.91 255.91,255.91 204.73,307.09" fill="#ffffff"/><rect x="255.91" y="255.91" width="51.18" height="51.18" fill="#ffffff"/><polygon points="255.91,255.91 307.09,255.91 307.09,307.09" fill="#ffffff"/><rect x="307.09090909090907" y="204.72727272727272" width="102.36363636363636" height="102.36363636363636" fill="#ffffff"/><rect x="307.09" y="204.73" width="51.18" height="51.18" fill="#ffffff"/><polygon points="358.27,204.73 358.27,255.91 307.09,255.91" fill="#ffffff"/><rect x="358.27" y="204.73" width="51.18" height="51.18" fill="#fdece5"/><polygon points="358.27,204.73 409.45,255.91 358.27,255.91" fill="#ffffff"/><rect x="307.09" y="255.91" width="51.18" height="51.18" fill="#f8b99f"/><polygon points="307.09,255.91 358.27,255.91 358.27,307.09" fill="#ffffff"/><rect x="358.27" y="255.91" width="51.18" height="51.18" fill="#ffffff"/><polygon points="358.27,255.91 409.45,255.91 358.27,307.09" fill="#f16d35"/><rect x="409.45" y="204.73" width="102.36" height="102.36" fill="#fef5f2"/><polygon points="409.45,204.73 511.81,307.09 409.45,307.09" fill="#ffffff"/><rect x="511.8181818181818" y="204.72727272727272" width="102.36363636363636" height="102.36363636363636" fill="#ffffff"/><rect x="511.82" y="204.73" width="51.18" height="51.18" fill="#ffffff"/><circle cx="537.41" cy="230.32" r="25.59" fill="#ffffff"/><rect x="563" y="204.73" width="51.18" height="51.18" fill="#ffffff"/><rect x="563" y="204.73" width="51.18" height="51.18" fill="#fbdbce"/><rect x="511.82" y="255.91" width="51.18" height="51.18" fill="#f9bda4"/><circle cx="537.41" cy="281.5" r="25.59" fill="#f27b49"/><rect x="563" y="255.91" width="51.18" height="51.18" fill="#ffffff"/><rect x="563" y="255.91" width="51.18" height="51.18" fill="#f06327"/><rect x="614.18" y="204.73" width="102.36" height="102.36" fill="#ef5e20"/><path d="M 614.18 204.73 A 102.36 102.36 0 0 0 716.54 307.09 L 716.54 204.73" fill="#ffffff"/><rect x="716.55" y="204.73" width="102.36" height="102.36" fill="#f38557"/><polygon points="818.91,204.73 818.91,307.09 716.55,307.09" fill="#f6a684"/><rect x="818.9090909090909" y="204.72727272727272" width="102.36363636363636" height="102.36363636363636" fill="#ffffff"/><rect x="818.91" y="204.73" width="51.18" height="51.18" fill="#ffffff"/><path d="M 818.91 255.91 A 51.18 51.18 0 0 1 870.0899999999999 204.73 L 870.0899999999999 217.52499999999998 A 38.385 38.385 0 0 0 831.7049999999999 255.91" fill="#ffffff"/><rect x="870.09" y="204.73" width="51.18" height="51.18" fill="#f8b497"/><path d="M 870.09 204.73 A 51.18 51.18 0 0 1 921.27 255.91 L 908.475 255.91 A 38.385 38.385 0 0 0 870.09 217.52499999999998" fill="#f7af90"/><rect x="818.91" y="255.91" width="51.18" height="51.18" fill="#fdece5"/><path d="M 818.91 255.91 A 51.18 51.18 0 0 0 870.0899999999999 307.09 L 870.0899999999999 294.295 A 38.385 38.385 0 0 1 831.7049999999999 255.91" fill="#ffffff"/><rect x="870.09" y="255.91" width="51.18" height="51.18" fill="#ffffff"/><path d="M 870.09 307.09 A 51.18 51.18 0 0 0 921.27 255.91 L 908.475 255.91 A 38.385 38.385 0 0 1 870.09 294.295" fill="#facbb7"/><rect x="921.27" y="204.73" width="102.36" height="102.36" fill="#ffffff"/><rect x="921.27" y="204.73" width="102.36" height="102.36" fill="#ffffff"/><rect x="1023.6363636363636" y="204.72727272727272" width="102.36363636363636" height="102.36363636363636" fill="#ffffff"/><rect x="1023.64" y="204.73" width="51.18" height="51.18" fill="#ffffff"/><polygon points="1074.82,204.73 1074.82,255.91 1023.64,255.91" fill="#ffffff"/><rect x="1074.82" y="204.73" width="51.18" height="51.18" fill="#f7a988"/><polygon points="1074.82,204.73 1126,255.91 1074.82,255.91" fill="#ffffff"/><rect x="1023.64" y="255.91" width="51.18" height="51.18" fill="#ffffff"/><polygon points="1023.64,255.91 1074.82,255.91 1074.82,307.09" fill="#ffffff"/><rect x="1074.82" y="255.91" width="51.18" height="51.18" fill="#fef3ee"/><polygon points="1074.82,255.91 1126,255.91 1074.82,307.09" fill="#ffffff"/></g></svg>